<?xml version="1.0" ?><!DOCTYPE svg  PUBLIC '-//W3C//DTD SVG 1.0//EN'  'http://www.w3.org/TR/2001/REC-SVG-20010904/DTD/svg10.dtd'><svg enable-background="new 0 0 16 16" height="100px" id="Layer_1" version="1.0" viewBox="0 0 16 16" width="100px" xml:space="preserve" xmlns="http://www.w3.org/2000/svg" xmlns:xlink="http://www.w3.org/1999/xlink"><g><defs><rect height="16" id="SVGID_1_" width="16"/></defs><path d="M9,8c0-0.553-0.447-1-1-1C7.447,7,7,7.447,7,8c0,0.553,0.447,1,1,1   C8.553,9,9,8.553,9,8" fill="#1D1D1B"/><path d="M14.186,4.727C13.01,2.51,10.684,1,8,1C4.831,1,2.166,3.112,1.307,6h1.047   C3.178,3.674,5.395,2,8,2c2.258,0,4.225,1.254,5.25,3.1L10.999,6l4,2l1-4L14.186,4.727z" fill="#1D1D1B"/><path d="M8,14c-2.256,0-4.225-1.254-5.248-3.1L5,10L1,8l-1,4l1.814-0.727   C2.99,13.49,5.318,15,8,15c3.17,0,5.834-2.111,6.695-5h-1.047C12.822,12.326,10.607,14,8,14" fill="#1D1D1B"/></g></svg>